<svg xmlns="http://www.w3.org/2000/svg" viewBox="0 0 120 120" fill="none">
  <rect width="120" height="120" rx="28" fill="#0F766E"/>
  <path d="M22 78h76v8a6 6 0 01-6 6H28a6 6 0 01-6-6v-8z" fill="#134E4A"/>
  <path d="M28 52h52l12 18H28V52z" fill="#ECFDF5"/>
  <rect x="34" y="58" width="14" height="10" rx="2" fill="#14B8A6"/>
  <rect x="52" y="58" width="14" height="10" rx="2" fill="#14B8A6"/>
  <circle cx="36" cy="86" r="8" fill="#022C22"/>
  <circle cx="36" cy="86" r="4" fill="#5EEAD4"/>
  <circle cx="84" cy="86" r="8" fill="#022C22"/>
  <circle cx="84" cy="86" r="4" fill="#5EEAD4"/>
  <path d="M18 48h14l8 12H22V48z" fill="#2DD4BF"/>
  <path d="M62 38l18-8 8 14-18 8-8-14z" fill="#A7F3D0"/>
  <circle cx="82" cy="36" r="6" fill="#FBBF24"/>
</svg>
